<?xml version="1.0" encoding="iso-8859-1"?>
<!-- Generator: Adobe Illustrator 18.1.1, SVG Export Plug-In . SVG Version: 6.00 Build 0)  -->
<svg version="1.1" id="Capa_1" xmlns="http://www.w3.org/2000/svg" xmlns:xlink="http://www.w3.org/1999/xlink" x="0px" y="0px"
	 viewBox="0 0 30.817 30.817" style="enable-background:new 0 0 30.817 30.817;" xml:space="preserve">
<g>
	<path d="M29.177,9.791h-0.73c0.004-0.022,0.014-0.042,0.014-0.067c0-0.354-0.287-0.642-0.643-0.642h-0.492L9.128,0.19
		C8.884,0.071,8.589,0.173,8.47,0.417C8.35,0.661,8.451,0.956,8.696,1.076l16.661,8.141c-0.156,0.119-0.266,0.298-0.266,0.507
		c0,0.025,0.012,0.045,0.014,0.067H1.64C0.732,9.791,0,10.529,0,11.434v17.604c0,0.904,0.732,1.639,1.64,1.639h27.538
		c0.904,0,1.639-0.735,1.639-1.639V11.434C30.816,10.529,30.082,9.791,29.177,9.791z M5.555,22.004c0-0.364,0.296-0.661,0.661-0.661
		c0.367,0,0.663,0.297,0.663,0.661c0,0.366-0.296,0.662-0.663,0.662C5.851,22.666,5.555,22.37,5.555,22.004z M5.909,23.617
		c0,0.366-0.297,0.663-0.662,0.663c-0.366,0-0.662-0.297-0.662-0.663c0-0.365,0.296-0.661,0.662-0.661
		C5.612,22.956,5.909,23.252,5.909,23.617z M7.374,22.956c0.365,0,0.66,0.296,0.66,0.661c0,0.366-0.295,0.663-0.66,0.663
		c-0.366,0-0.664-0.297-0.664-0.663C6.71,23.252,7.008,22.956,7.374,22.956z M7.601,22.004c0-0.364,0.297-0.661,0.662-0.661
		c0.366,0,0.662,0.297,0.662,0.661c0,0.366-0.296,0.662-0.662,0.662C7.897,22.666,7.601,22.37,7.601,22.004z M9.419,22.956
		c0.366,0,0.662,0.296,0.662,0.661c0,0.366-0.296,0.663-0.662,0.663c-0.365,0-0.662-0.297-0.662-0.663
		C8.757,23.252,9.054,22.956,9.419,22.956z M9.847,22.004c0-0.364,0.297-0.661,0.662-0.661s0.662,0.297,0.662,0.661
		c0,0.366-0.297,0.662-0.662,0.662S9.847,22.37,9.847,22.004z M11.667,22.956c0.364,0,0.66,0.296,0.66,0.661
		c0,0.366-0.296,0.663-0.66,0.663c-0.367,0-0.664-0.297-0.664-0.663C11.003,23.252,11.3,22.956,11.667,22.956z M11.974,22.004
		c0-0.364,0.297-0.661,0.662-0.661s0.662,0.297,0.662,0.661c0,0.366-0.297,0.662-0.662,0.662S11.974,22.37,11.974,22.004z
		 M13.792,22.956c0.365,0,0.662,0.296,0.662,0.661c0,0.366-0.297,0.663-0.662,0.663s-0.662-0.297-0.662-0.663
		C13.13,23.252,13.427,22.956,13.792,22.956z M14.085,22.004c0-0.364,0.295-0.661,0.66-0.661c0.367,0,0.662,0.297,0.662,0.661
		c0,0.366-0.295,0.662-0.662,0.662C14.38,22.666,14.085,22.37,14.085,22.004z M14.745,18.993c-0.365,0-0.66-0.296-0.66-0.663
		c0-0.366,0.295-0.664,0.66-0.664c0.367,0,0.662,0.298,0.662,0.664S15.112,18.993,14.745,18.993z M14.497,20.234
		c0,0.366-0.296,0.664-0.662,0.664c-0.365,0-0.662-0.298-0.662-0.664c0-0.365,0.297-0.662,0.662-0.662
		C14.201,19.573,14.497,19.869,14.497,20.234z M12.636,18.993c-0.365,0-0.662-0.296-0.662-0.663c0-0.366,0.297-0.664,0.662-0.664
		s0.662,0.298,0.662,0.664C13.298,18.696,13.001,18.993,12.636,18.993z M12.371,20.234c0,0.366-0.296,0.664-0.663,0.664
		c-0.364,0-0.66-0.298-0.66-0.664c0-0.365,0.296-0.662,0.66-0.662C12.075,19.573,12.371,19.869,12.371,20.234z M10.509,18.993
		c-0.365,0-0.662-0.296-0.662-0.663c0-0.366,0.297-0.664,0.662-0.664s0.662,0.298,0.662,0.664S10.874,18.993,10.509,18.993z
		 M10.124,20.234c0,0.366-0.297,0.664-0.662,0.664s-0.66-0.298-0.66-0.664c0-0.365,0.295-0.662,0.66-0.662
		S10.124,19.869,10.124,20.234z M8.263,18.993c-0.365,0-0.662-0.296-0.662-0.663c0-0.366,0.297-0.664,0.662-0.664
		c0.366,0,0.662,0.298,0.662,0.664C8.925,18.696,8.629,18.993,8.263,18.993z M8.078,20.234c0,0.366-0.296,0.664-0.661,0.664
		c-0.366,0-0.662-0.298-0.662-0.664c0-0.365,0.296-0.662,0.662-0.662C7.782,19.573,8.078,19.869,8.078,20.234z M6.216,18.993
		c-0.365,0-0.661-0.296-0.661-0.663c0-0.366,0.296-0.664,0.661-0.664c0.367,0,0.663,0.298,0.663,0.664
		C6.879,18.696,6.583,18.993,6.216,18.993z M5.952,20.234c0,0.366-0.295,0.664-0.662,0.664c-0.365,0-0.662-0.298-0.662-0.664
		c0-0.365,0.297-0.662,0.662-0.662C5.657,19.573,5.952,19.869,5.952,20.234z M4.091,18.993c-0.365,0-0.662-0.296-0.662-0.663
		c0-0.366,0.297-0.664,0.662-0.664s0.662,0.298,0.662,0.664C4.753,18.696,4.456,18.993,4.091,18.993z M4.091,21.343
		c0.365,0,0.662,0.297,0.662,0.661c0,0.366-0.297,0.662-0.662,0.662s-0.662-0.295-0.662-0.662
		C3.429,21.64,3.726,21.343,4.091,21.343z M3.429,25.302c0-0.366,0.297-0.662,0.662-0.662s0.662,0.295,0.662,0.662
		s-0.297,0.663-0.662,0.663S3.429,25.669,3.429,25.302z M5.21,27.697c-0.365,0-0.663-0.296-0.663-0.663
		c0-0.365,0.298-0.66,0.663-0.66s0.662,0.295,0.662,0.66C5.872,27.401,5.575,27.697,5.21,27.697z M5.555,25.302
		c0-0.366,0.296-0.662,0.661-0.662c0.367,0,0.663,0.295,0.663,0.662s-0.296,0.663-0.663,0.663
		C5.851,25.964,5.555,25.669,5.555,25.302z M7.335,27.697c-0.365,0-0.662-0.296-0.662-0.663c0-0.365,0.297-0.66,0.662-0.66
		c0.367,0,0.662,0.295,0.662,0.66C7.997,27.401,7.702,27.697,7.335,27.697z M7.601,25.302c0-0.366,0.297-0.662,0.662-0.662
		c0.366,0,0.662,0.295,0.662,0.662s-0.296,0.663-0.662,0.663C7.897,25.964,7.601,25.669,7.601,25.302z M9.382,27.697
		c-0.365,0-0.662-0.296-0.662-0.663c0-0.365,0.297-0.66,0.662-0.66s0.662,0.295,0.662,0.66C10.044,27.401,9.747,27.697,9.382,27.697
		z M9.847,25.302c0-0.366,0.297-0.662,0.662-0.662s0.662,0.295,0.662,0.662s-0.297,0.663-0.662,0.663S9.847,25.669,9.847,25.302z
		 M11.628,27.697c-0.365,0-0.662-0.296-0.662-0.663c0-0.365,0.297-0.66,0.662-0.66s0.662,0.295,0.662,0.66
		C12.29,27.401,11.993,27.697,11.628,27.697z M11.974,25.302c0-0.366,0.297-0.662,0.662-0.662s0.662,0.295,0.662,0.662
		s-0.297,0.663-0.662,0.663S11.974,25.669,11.974,25.302z M13.754,27.697c-0.364,0-0.661-0.296-0.661-0.663
		c0-0.365,0.297-0.66,0.661-0.66c0.366,0,0.663,0.295,0.663,0.66C14.417,27.401,14.12,27.697,13.754,27.697z M14.085,25.302
		c0-0.366,0.295-0.662,0.66-0.662c0.367,0,0.662,0.295,0.662,0.662s-0.295,0.663-0.662,0.663
		C14.38,25.964,14.085,25.669,14.085,25.302z M15.864,27.697c-0.365,0-0.661-0.296-0.661-0.663c0-0.365,0.296-0.66,0.661-0.66
		c0.366,0,0.662,0.295,0.662,0.66C16.526,27.401,16.23,27.697,15.864,27.697z M15.901,24.28c-0.364,0-0.66-0.297-0.66-0.663
		c0-0.365,0.296-0.661,0.66-0.661c0.367,0,0.662,0.296,0.662,0.661C16.563,23.983,16.269,24.28,15.901,24.28z M15.946,20.898
		c-0.366,0-0.662-0.298-0.662-0.664c0-0.365,0.296-0.662,0.662-0.662c0.365,0,0.662,0.297,0.662,0.662
		C16.608,20.6,16.312,20.898,15.946,20.898z M18.392,15.221H6.851l-0.342-1.269l-0.354,1.269H3.469v-2.889h1.304v0.723h0.723v-0.723
		h2.166v0.723h0.722v-0.723h2.106v0.723h0.723v-0.723h2.045v0.723h0.723v-0.723h2.137v0.723h0.723v-0.723h1.553v2.889H18.392z
		 M20.317,12.373h6.739v2.888h-6.739V12.373z M24.33,26.573c-2.105,0-3.812-1.707-3.812-3.811s1.707-3.811,3.812-3.811
		s3.811,1.707,3.811,3.811C28.14,24.867,26.435,26.573,24.33,26.573z"/>
	<path d="M24.33,20.155c-0.17,0-0.334,0.018-0.494,0.049l-0.732-0.731v0.995l0.018-0.002c-0.828,0.438-1.398,1.296-1.398,2.297
		c0,1.439,1.168,2.607,2.607,2.607s2.607-1.168,2.607-2.607C26.937,21.324,25.769,20.155,24.33,20.155z"/>
	<g>
	</g>
	<g>
	</g>
	<g>
	</g>
	<g>
	</g>
	<g>
	</g>
	<g>
	</g>
	<g>
	</g>
	<g>
	</g>
	<g>
	</g>
	<g>
	</g>
	<g>
	</g>
	<g>
	</g>
	<g>
	</g>
	<g>
	</g>
	<g>
	</g>
</g>
<g>
</g>
<g>
</g>
<g>
</g>
<g>
</g>
<g>
</g>
<g>
</g>
<g>
</g>
<g>
</g>
<g>
</g>
<g>
</g>
<g>
</g>
<g>
</g>
<g>
</g>
<g>
</g>
<g>
</g>
</svg>
