<?xml version="1.0" encoding="iso-8859-1"?>
<!-- Generator: Adobe Illustrator 19.0.0, SVG Export Plug-In . SVG Version: 6.00 Build 0)  -->
<svg version="1.1" id="Layer_1" xmlns="http://www.w3.org/2000/svg" xmlns:xlink="http://www.w3.org/1999/xlink" x="0px" y="0px"
	 viewBox="0 0 512 512" style="enable-background:new 0 0 512 512;" xml:space="preserve">
<g transform="translate(1 1)">
	<g>
		<g>
			<path d="M456.387,186.733h-2.5c-9.875-20.579-30.418-34.133-53.82-34.133c-23.402,0-43.945,13.554-53.82,34.133H79.213
				L252.44,13.507c3.413-3.413,3.413-8.533,0-11.947s-8.533-3.413-11.947,0L55.32,186.733h-1.707C23.747,186.733-1,211.48-1,241.347
				v180.907c0,29.867,24.747,54.613,54.613,54.613h5.12v17.067c0,9.387,7.68,17.067,17.067,17.067H127
				c9.387,0,17.067-7.68,17.067-17.067v-17.067h221.867v17.067c0,9.387,7.68,17.067,17.067,17.067h51.2
				c9.387,0,17.067-7.68,17.067-17.067v-17.067h5.12c29.867,0,54.613-24.747,54.613-54.613V241.347
				C511,211.48,486.253,186.733,456.387,186.733z M400.067,169.667c13.653,0,26.453,6.827,34.133,17.067h-68.267
				C373.613,176.493,386.413,169.667,400.067,169.667z M127,493.933H75.8v-17.067H127V493.933z M434.2,493.933H383v-17.067h51.2
				V493.933z M493.933,422.253c0,20.48-17.067,37.547-37.547,37.547h-13.653h-68.267H135.533H67.267H53.613
				c-20.48,0-37.547-17.067-37.547-37.547V241.347c0-20.48,17.067-37.547,37.547-37.547h297.813h97.28h7.68
				c20.48,0,37.547,17.067,37.547,37.547V422.253z"/>
			<path d="M451.267,220.867H58.733c-5.12,0-8.533,3.413-8.533,8.533v68.267c0,5.12,3.413,8.533,8.533,8.533h392.533
				c5.12,0,8.533-3.413,8.533-8.533V229.4C459.8,224.28,456.387,220.867,451.267,220.867z M442.733,289.133H408.6v-25.6
				c0-5.12-3.413-8.533-8.533-8.533c-5.12,0-8.533,3.413-8.533,8.533v25.6h-25.6v-17.067c0-5.12-3.413-8.533-8.533-8.533
				s-8.533,3.413-8.533,8.533v17.067h-25.6v-25.6c0-5.12-3.413-8.533-8.533-8.533s-8.533,3.413-8.533,8.533v25.6h-25.6v-17.067
				c0-5.12-3.413-8.533-8.533-8.533c-5.12,0-8.533,3.413-8.533,8.533v17.067h-25.6v-25.6c0-5.12-3.413-8.533-8.533-8.533
				s-8.533,3.413-8.533,8.533v25.6h-25.6v-17.067c0-5.12-3.413-8.533-8.533-8.533s-8.533,3.413-8.533,8.533v17.067h-25.6v-25.6
				c0-5.12-3.413-8.533-8.533-8.533c-5.12,0-8.533,3.413-8.533,8.533v25.6h-25.6v-17.067c0-5.12-3.413-8.533-8.533-8.533
				s-8.533,3.413-8.533,8.533v17.067h-25.6v-51.2h375.467V289.133z"/>
			<path d="M400.067,323.267c-25.232,0-46.528,15.213-55.358,37.072c-1.07,1.328-1.698,3.059-1.793,5.071
				c-1.676,5.55-2.582,11.453-2.582,17.59s0.906,12.04,2.582,17.591c0.095,2.012,0.723,3.743,1.793,5.071
				c8.83,21.859,30.126,37.072,55.358,37.072c33.28,0,59.733-26.453,59.733-59.733C459.8,349.72,433.347,323.267,400.067,323.267z
				 M400.067,340.333c14.218,0,26.621,6.649,34.336,17.067H365.73C373.446,346.982,385.849,340.333,400.067,340.333z M442.733,383
				c0,2.93-0.286,5.782-0.825,8.533h-83.682c-0.54-2.751-0.825-5.603-0.825-8.533s0.286-5.782,0.825-8.533h83.682
				C442.447,377.218,442.733,380.07,442.733,383z M400.067,425.667c-14.218,0-26.621-6.649-34.336-17.067h68.672
				C426.688,419.018,414.284,425.667,400.067,425.667z"/>
			<path d="M255,374.467H109.933v-8.533c0-5.12-3.413-8.533-8.533-8.533s-8.533,3.413-8.533,8.533v8.533H58.733
				c-5.12,0-8.533,3.413-8.533,8.533s3.413,8.533,8.533,8.533h34.133v8.533c0,5.12,3.413,8.533,8.533,8.533s8.533-3.413,8.533-8.533
				v-8.533H255c5.12,0,8.533-3.413,8.533-8.533S260.12,374.467,255,374.467z"/>
		</g>
	</g>
</g>
<g>
</g>
<g>
</g>
<g>
</g>
<g>
</g>
<g>
</g>
<g>
</g>
<g>
</g>
<g>
</g>
<g>
</g>
<g>
</g>
<g>
</g>
<g>
</g>
<g>
</g>
<g>
</g>
<g>
</g>
</svg>
