<?xml version='1.0' encoding='iso-8859-1'?>
<!DOCTYPE svg PUBLIC '-//W3C//DTD SVG 1.1//EN' 'http://www.w3.org/Graphics/SVG/1.1/DTD/svg11.dtd'>
<svg version="1.1" xmlns="http://www.w3.org/2000/svg" viewBox="0 0 414.04 414.04" xmlns:xlink="http://www.w3.org/1999/xlink" enable-background="new 0 0 414.04 414.04">
  <g>
    <path d="m379.109,113.927h-276.112l273.937-72.086c4.006-1.054 6.398-5.156 5.344-9.162-1.054-4.006-5.157-6.397-9.162-5.344l-329.06,86.592h-9.125c-19.261,0-34.931,15.67-34.931,34.931v203.165c0,19.261 15.67,34.931 34.931,34.931h344.179c19.261,0 34.931-15.67 34.931-34.931v-203.165c-0.001-19.261-15.671-34.931-34.932-34.931zm19.931,238.096c0,10.99-8.941,19.931-19.931,19.931h-344.178c-10.99,0-19.931-8.941-19.931-19.931v-203.165c0-10.99 8.941-19.931 19.931-19.931h344.179c10.99,0 19.931,8.941 19.931,19.931v203.165z"/>
    <path d="m379.11,136.427h-344.179c-6.854,0-12.43,5.576-12.43,12.43v203.165c0,6.854 5.576,12.431 12.43,12.431h344.179c6.854,0 12.43-5.576 12.43-12.431v-203.164c0-6.854-5.576-12.431-12.43-12.431zm-344.179,10h344.179c1.34,0 2.43,1.09 2.43,2.43v48.566h-349.04v-48.566c0-1.339 1.091-2.43 2.431-2.43zm344.179,208.026h-344.179c-1.34,0-2.43-1.09-2.43-2.431v-144.598h349.04v144.599c-0.001,1.34-1.091,2.43-2.431,2.43z"/>
    <path d="m63.777,193.425c11.854,0 21.499-9.645 21.499-21.499s-9.645-21.499-21.499-21.499-21.499,9.645-21.499,21.499 9.645,21.499 21.499,21.499zm0-32.999c6.341,0 11.499,5.158 11.499,11.499s-5.158,11.499-11.499,11.499-11.499-5.158-11.499-11.499 5.159-11.499 11.499-11.499z"/>
    <path d="m350.263,193.425c11.854,0 21.499-9.645 21.499-21.499s-9.645-21.499-21.499-21.499c-11.855,0-21.5,9.645-21.5,21.499s9.645,21.499 21.5,21.499zm0-32.999c6.341,0 11.499,5.158 11.499,11.499s-5.158,11.499-11.499,11.499-11.5-5.158-11.5-11.499 5.159-11.499 11.5-11.499z"/>
    <path d="m108.318,187.423h197.403c2.761,0 5-2.239 5-5v-20.996c0-2.761-2.239-5-5-5h-197.403c-2.761,0-5,2.239-5,5v20.996c0,2.761 2.239,5 5,5zm143.924-10h-15.111v-10.996h15.111v10.996zm10-10.996h15.111v10.996h-15.111v-10.996zm-35.111,10.996h-15.111v-10.996h15.111v10.996zm-25.111,0h-15.111v-10.996h15.111v10.996zm-25.111,0h-15.111v-10.996h15.111v10.996zm-25.111,0h-15.111v-10.996h15.111v10.996zm148.924,0h-13.368v-10.996h13.368v10.996zm-187.404-10.996h13.369v10.996h-13.369v-10.996z"/>
    <path d="m88.304,245.775h130.14c2.761,0 5-2.239 5-5s-2.239-5-5-5h-130.14c-2.761,0-5,2.239-5,5s2.239,5 5,5z"/>
    <path d="m69.324,261.635h168.1c2.761,0 5-2.239 5-5s-2.239-5-5-5h-168.1c-2.761,0-5,2.239-5,5s2.239,5 5,5z"/>
    <path d="m245.424,267.495h-184.1c-2.761,0-5,2.239-5,5s2.239,5 5,5h184.1c2.761,0 5-2.239 5-5s-2.238-5-5-5z"/>
    <path d="m245.424,283.345h-184.1c-2.761,0-5,2.239-5,5s2.239,5 5,5h184.1c2.761,0 5-2.239 5-5s-2.238-5-5-5z"/>
    <path d="m237.414,299.205h-168.08c-2.761,0-5,2.239-5,5s2.239,5 5,5h168.08c2.761,0 5-2.239 5-5s-2.239-5-5-5z"/>
    <path d="m218.424,315.065h-130.1c-2.761,0-5,2.239-5,5s2.239,5 5,5h130.1c2.761,0 5-2.239 5-5s-2.238-5-5-5z"/>
    <path d="m128.018,229.922h50.713c2.761,0 5-2.239 5-5s-2.239-5-5-5h-50.713c-2.761,0-5,2.239-5,5s2.238,5 5,5z"/>
    <path d="m174.778,331.018h-42.807c-2.761,0-5,2.239-5,5s2.239,5 5,5h42.807c2.761,0 5-2.239 5-5s-2.239-5-5-5z"/>
    <path d="m350.265,172.618c1.31,0 2.6-0.53 3.53-1.47 0.93-0.92 1.47-2.21 1.47-3.53 0-1.31-0.54-2.6-1.47-3.54-0.93-0.93-2.22-1.46-3.53-1.46-1.32,0-2.61,0.53-3.54,1.46-0.93,0.94-1.46,2.22-1.46,3.54 0,1.32 0.53,2.61 1.46,3.53 0.93,0.94 2.22,1.47 3.54,1.47z"/>
    <path d="m63.775,172.618c1.32,0 2.61-0.53 3.54-1.46 0.93-0.93 1.46-2.22 1.46-3.54 0-1.32-0.53-2.6-1.46-3.54-0.93-0.93-2.22-1.46-3.54-1.46-1.31,0-2.6,0.53-3.53,1.46-0.93,0.94-1.47,2.22-1.47,3.54 0,1.32 0.54,2.61 1.47,3.54 0.93,0.93 2.22,1.46 3.53,1.46z"/>
  </g>
</svg>
