<?xml version="1.0" encoding="iso-8859-1"?>
<!-- Generator: Adobe Illustrator 18.1.1, SVG Export Plug-In . SVG Version: 6.00 Build 0)  -->
<svg version="1.1" id="Capa_1" xmlns="http://www.w3.org/2000/svg" xmlns:xlink="http://www.w3.org/1999/xlink" x="0px" y="0px"
	 viewBox="0 0 23.834 23.834" style="enable-background:new 0 0 23.834 23.834;" xml:space="preserve">
<g>
	<path style="fill:#030104;" d="M19.996,18.306c0,0.918-0.744,1.662-1.662,1.662s-1.662-0.744-1.662-1.662s0.744-1.662,1.662-1.662
		S19.996,17.388,19.996,18.306z M23.834,10.056v11c0,1.518-1.232,2.75-2.75,2.75H2.75c-1.518,0-2.75-1.232-2.75-2.75v-11
		C0,8.793,0.857,7.74,2.016,7.417C2.014,7.379,2.005,7.343,2.005,7.305c0-0.918,0.744-1.662,1.662-1.662
		c0.218,0,0.425,0.045,0.616,0.121l15.94-4.417c0,0,0,0,0-0.001c0-0.728,0.59-1.318,1.318-1.318s1.318,0.59,1.318,1.318
		s-0.59,1.318-1.318,1.318c-0.478,0-0.877-0.267-1.108-0.648L5.169,6.605c0.1,0.213,0.159,0.449,0.159,0.7h15.755
		C22.602,7.305,23.834,8.538,23.834,10.056z M15.584,12.806h5.5V9.139h-5.5V12.806z M2.75,9.139v3.667h11.917V9.139H2.75z
		 M3.667,16.014c0-0.253-0.205-0.458-0.458-0.458s-0.458,0.205-0.458,0.458v4.583c0,0.253,0.205,0.458,0.458,0.458
		s0.458-0.205,0.458-0.458V16.014z M5.5,16.014c0-0.253-0.205-0.458-0.458-0.458s-0.458,0.205-0.458,0.458v4.583
		c0,0.253,0.205,0.458,0.458,0.458S5.5,20.85,5.5,20.597V16.014z M7.334,16.014c0-0.253-0.205-0.458-0.458-0.458
		s-0.459,0.205-0.459,0.458v4.583c0,0.253,0.205,0.458,0.458,0.458s0.458-0.205,0.458-0.458L7.334,16.014L7.334,16.014z
		 M9.167,16.014c0-0.253-0.205-0.458-0.458-0.458s-0.458,0.205-0.458,0.458v4.583c0,0.253,0.205,0.458,0.458,0.458
		s0.458-0.205,0.458-0.458V16.014z M11,16.014c0-0.253-0.205-0.458-0.458-0.458s-0.458,0.205-0.458,0.458v4.583
		c0,0.253,0.205,0.458,0.458,0.458S11,20.85,11,20.597V16.014z M12.834,16.014c0-0.253-0.205-0.458-0.458-0.458
		s-0.459,0.205-0.459,0.458v4.583c0,0.253,0.205,0.458,0.458,0.458s0.458-0.205,0.458-0.458L12.834,16.014L12.834,16.014z
		 M21.236,18.306c0-1.603-1.299-2.902-2.902-2.902s-2.902,1.299-2.902,2.902s1.299,2.902,2.902,2.902S21.236,19.909,21.236,18.306z"
		/>
</g>
<g>
</g>
<g>
</g>
<g>
</g>
<g>
</g>
<g>
</g>
<g>
</g>
<g>
</g>
<g>
</g>
<g>
</g>
<g>
</g>
<g>
</g>
<g>
</g>
<g>
</g>
<g>
</g>
<g>
</g>
</svg>
