<?xml version="1.0" encoding="iso-8859-1"?>
<!-- Generator: Adobe Illustrator 19.0.0, SVG Export Plug-In . SVG Version: 6.00 Build 0)  -->
<svg version="1.1" id="Capa_1" xmlns="http://www.w3.org/2000/svg" xmlns:xlink="http://www.w3.org/1999/xlink" x="0px" y="0px"
	 viewBox="0 0 511.913 511.913" style="enable-background:new 0 0 511.913 511.913;" xml:space="preserve">
<g>
	<g>
		<g>
			<circle cx="277.958" cy="404.121" r="8.982"/>
			<circle cx="340.836" cy="404.121" r="8.982"/>
			<circle cx="466.59" cy="404.121" r="8.982"/>
			<path d="M129.748,233.457c-34.514,0-65.63,20.791-78.838,52.678c-13.208,31.887-5.907,68.59,18.498,92.995
				s61.109,31.706,92.995,18.498c31.887-13.208,52.678-44.324,52.678-78.838C215.028,271.684,176.854,233.51,129.748,233.457z
				 M129.748,386.158c-37.207,0-67.368-30.162-67.368-67.368s30.162-67.368,67.368-67.368s67.368,30.162,67.368,67.368
				C197.076,355.98,166.938,386.118,129.748,386.158z"/>
			<circle cx="62.38" cy="458.016" r="17.965"/>
			<circle cx="197.116" cy="458.016" r="17.965"/>
			<circle cx="129.748" cy="318.788" r="49.404"/>
			<circle cx="403.713" cy="404.121" r="8.982"/>
			<path d="M484.555,197.527h-8.982v-62.789c0-9.922-8.043-17.965-17.965-17.965c-0.225,0-0.434,0.058-0.657,0.066l-0.241-0.066
				L23.036,0.629c-1.519-0.429-3.092-0.641-4.671-0.629C9.359,0.004,1.748,6.677,0.567,15.605
				c-1.181,8.928,4.432,17.351,13.128,19.697l425.948,114.167v48.058H35.432c-14.876,0.016-26.931,12.071-26.947,26.947v260.491
				c0.016,14.876,12.071,26.931,26.947,26.947h224.561v-26.947c0-4.961,4.022-8.982,8.982-8.982s8.982,4.022,8.982,8.982v26.947
				h17.965v-26.947c0-4.961,4.022-8.982,8.982-8.982s8.982,4.022,8.982,8.982v26.947h17.965v-26.947
				c0-4.961,4.022-8.982,8.982-8.982s8.982,4.022,8.982,8.982v26.947h17.965v-26.947c0-4.961,4.022-8.982,8.982-8.982
				s8.982,4.022,8.982,8.982v26.947h17.965v-26.947c0-4.961,4.022-8.982,8.982-8.982s8.982,4.022,8.982,8.982v26.947h17.965v-26.947
				c0-4.961,4.022-8.982,8.982-8.982s8.982,4.022,8.982,8.982v26.947h17.965v-26.947c0-4.961,4.022-8.982,8.982-8.982
				s8.982,4.022,8.982,8.982v25.293c10.736-3.782,17.93-13.91,17.965-25.292V224.474
				C511.486,209.598,499.431,197.543,484.555,197.527z M62.38,493.948c-19.844,0-35.93-16.086-35.93-35.93
				c0-19.844,16.086-35.93,35.93-35.93s35.93,16.086,35.93,35.93C98.287,477.852,82.214,493.925,62.38,493.948z M197.116,493.948
				c-19.843,0-35.93-16.086-35.93-35.93c0-19.844,16.086-35.93,35.93-35.93c19.844,0,35.93,16.086,35.93,35.93
				C233.023,477.852,216.95,493.925,197.116,493.948z M129.748,422.088c-57.05,0-103.298-46.248-103.298-103.298
				s46.248-103.298,103.298-103.298S233.046,261.74,233.046,318.79C232.983,375.814,186.772,422.025,129.748,422.088z
				 M277.958,431.071c-10.899,0-20.725-6.565-24.896-16.635c-4.171-10.07-1.865-21.66,5.841-29.367
				c7.707-7.707,19.297-10.012,29.367-5.841c10.07,4.171,16.635,13.997,16.635,24.896
				C304.89,418.999,292.834,431.054,277.958,431.071z M340.836,431.071c-10.899,0-20.725-6.565-24.896-16.635
				c-4.171-10.07-1.865-21.66,5.841-29.367c7.707-7.707,19.297-10.012,29.367-5.841c10.07,4.171,16.635,13.997,16.635,24.896
				C367.767,418.999,355.712,431.054,340.836,431.071z M403.713,431.071c-10.899,0-20.725-6.565-24.896-16.635
				c-4.171-10.07-1.865-21.66,5.841-29.367c7.707-7.707,19.297-10.012,29.367-5.841c10.07,4.171,16.635,13.997,16.635,24.896
				C430.644,418.999,418.589,431.054,403.713,431.071z M466.59,431.071c-10.899,0-20.725-6.565-24.896-16.635
				c-4.171-10.07-1.865-21.66,5.841-29.367c7.707-7.707,19.297-10.012,29.367-5.841c10.07,4.171,16.635,13.997,16.635,24.896
				C493.521,418.999,481.466,431.054,466.59,431.071z M493.537,341.246c-0.016,14.876-12.071,26.931-26.947,26.947H277.958
				c-14.876-0.016-26.931-12.071-26.947-26.947v-98.807c0.016-14.876,12.071-26.931,26.947-26.947H466.59
				c14.876,0.016,26.931,12.071,26.947,26.947V341.246z"/>
			<path d="M466.59,233.457H277.958c-4.958,0.006-8.976,4.024-8.982,8.982v98.807c0.006,4.958,4.024,8.976,8.982,8.982H466.59
				c4.958-0.006,8.976-4.024,8.982-8.982v-98.807C475.566,237.481,471.548,233.463,466.59,233.457z M361.406,271.987
				c0.426-0.387,0.876-0.747,1.346-1.079c0.5-0.339,1.043-0.61,1.614-0.807c0.51-0.258,1.055-0.44,1.618-0.539
				c2.957-0.559,6.002,0.344,8.175,2.425c1.639,1.723,2.569,4,2.605,6.378c-0.014,1.174-0.258,2.333-0.719,3.412h0.001
				c-0.435,1.099-1.075,2.105-1.886,2.965c-0.873,0.794-1.876,1.432-2.965,1.886c-1.066,0.504-2.234,0.75-3.413,0.719
				c-3.632-0.014-6.901-2.206-8.294-5.56C358.096,278.432,358.852,274.57,361.406,271.987z M304.906,323.281
				c0,4.961-4.022,8.982-8.982,8.982c-4.961,0-8.982-4.022-8.982-8.982v-17.965c0-4.961,4.022-8.982,8.982-8.982
				c4.961,0,8.982,4.022,8.982,8.982V323.281z M304.906,278.369c0,4.961-4.022,8.982-8.982,8.982c-4.961,0-8.982-4.022-8.982-8.982
				v-17.965c0-4.961,4.022-8.982,8.982-8.982c4.961,0,8.982,4.022,8.982,8.982V278.369z M340.836,323.281
				c0,4.961-4.022,8.982-8.982,8.982s-8.982-4.022-8.982-8.982v-17.965c0-4.961,4.022-8.982,8.982-8.982s8.982,4.022,8.982,8.982
				V323.281z M340.836,278.369c0,4.961-4.022,8.982-8.982,8.982s-8.982-4.022-8.982-8.982v-17.965c0-4.961,4.022-8.982,8.982-8.982
				s8.982,4.022,8.982,8.982V278.369z M374.161,320.672c-0.858,0.813-1.865,1.454-2.965,1.886c-1.079,0.462-2.239,0.707-3.413,0.719
				c-0.603-0.018-1.204-0.079-1.798-0.18c-0.564-0.096-1.11-0.278-1.618-0.539c-0.571-0.197-1.114-0.468-1.614-0.807
				c-0.452-0.359-0.899-0.719-1.346-1.079c-1.641-1.721-2.572-3.999-2.605-6.378c0.013-1.173,0.256-2.333,0.715-3.412
				c0.457-1.089,1.096-2.091,1.89-2.965c0.447-0.359,0.895-0.719,1.346-1.079c0.5-0.339,1.043-0.61,1.614-0.807
				c0.51-0.258,1.055-0.439,1.618-0.539c1.751-0.368,3.572-0.179,5.211,0.539c1.099,0.434,2.106,1.075,2.965,1.886
				c0.791,0.875,1.429,1.877,1.886,2.965c0.46,1.079,0.704,2.239,0.719,3.412C376.73,316.672,375.8,318.949,374.161,320.672z
				 M421.678,323.281c0,4.961-4.022,8.982-8.982,8.982s-8.982-4.022-8.982-8.982v-17.965c0-4.961,4.022-8.982,8.982-8.982
				s8.982,4.022,8.982,8.982V323.281z M421.678,278.369c0,4.961-4.022,8.982-8.982,8.982s-8.982-4.022-8.982-8.982v-17.965
				c0-4.961,4.022-8.982,8.982-8.982s8.982,4.022,8.982,8.982V278.369z M457.608,323.281c0,4.961-4.022,8.982-8.982,8.982
				s-8.982-4.022-8.982-8.982v-17.965c0-4.961,4.022-8.982,8.982-8.982s8.982,4.022,8.982,8.982V323.281z M457.608,278.369
				c0,4.961-4.022,8.982-8.982,8.982s-8.982-4.022-8.982-8.982v-17.965c0-4.961,4.022-8.982,8.982-8.982s8.982,4.022,8.982,8.982
				V278.369z"/>
		</g>
	</g>
</g>
<g>
</g>
<g>
</g>
<g>
</g>
<g>
</g>
<g>
</g>
<g>
</g>
<g>
</g>
<g>
</g>
<g>
</g>
<g>
</g>
<g>
</g>
<g>
</g>
<g>
</g>
<g>
</g>
<g>
</g>
</svg>
