<?xml version="1.0" encoding="iso-8859-1"?>
<!-- Generator: Adobe Illustrator 19.0.0, SVG Export Plug-In . SVG Version: 6.00 Build 0)  -->
<svg version="1.1" id="Capa_1" xmlns="http://www.w3.org/2000/svg" xmlns:xlink="http://www.w3.org/1999/xlink" x="0px" y="0px"
	 viewBox="0 0 512 512" style="enable-background:new 0 0 512 512;" xml:space="preserve">
<g>
	<g>
		<path d="M137.333,206c-16.542,0-30,13.458-30,30s13.458,30,30,30s30-13.458,30-30S153.875,206,137.333,206z"/>
	</g>
</g>
<g>
	<g>
		<path d="M325.405,206H189.261c5.123,8.833,8.072,19.075,8.072,30s-2.949,21.167-8.072,30h136.144
			c-5.123-8.833-8.072-19.075-8.072-30S320.282,214.833,325.405,206z"/>
	</g>
</g>
<g>
	<g>
		<path d="M377.333,206c-16.542,0-30,13.458-30,30s13.458,30,30,30s30-13.458,30-30S393.875,206,377.333,206z"/>
	</g>
</g>
<g>
	<g>
		<path d="M0,86v340h512V86H0z M166,396l30-45h120l30,45H166z M377.333,296h-240c-33.084,0-60-26.916-60-60s26.916-60,60-60h240
			c33.084,0,60,26.916,60,60S410.417,296,377.333,296z"/>
	</g>
</g>
<g>
</g>
<g>
</g>
<g>
</g>
<g>
</g>
<g>
</g>
<g>
</g>
<g>
</g>
<g>
</g>
<g>
</g>
<g>
</g>
<g>
</g>
<g>
</g>
<g>
</g>
<g>
</g>
<g>
</g>
</svg>
