<?xml version="1.0" encoding="iso-8859-1"?>
<!-- Generator: Adobe Illustrator 19.1.0, SVG Export Plug-In . SVG Version: 6.00 Build 0)  -->
<svg version="1.1" id="Capa_1" xmlns="http://www.w3.org/2000/svg" xmlns:xlink="http://www.w3.org/1999/xlink" x="0px" y="0px"
	 viewBox="0 0 333.488 333.488" style="enable-background:new 0 0 333.488 333.488;" xml:space="preserve">
<g>
	<path d="M301.354,84.153H268.68L65.078,18.638C63.78,12.32,58.189,7.564,51.485,7.564c-7.674,0-13.895,6.221-13.895,13.888
		c0,7.674,6.221,13.895,13.895,13.895c3.965,0,7.519-1.684,10.045-4.351L226.7,84.153H32.134C14.415,84.153,0,98.568,0,116.287
		V293.79c0,17.719,14.415,32.134,32.134,32.134h269.22c17.719,0,32.134-14.415,32.134-32.134V116.287
		C333.488,98.568,319.073,84.153,301.354,84.153z M320.635,293.79c0,10.63-8.651,19.281-19.281,19.281H32.134
		c-10.63,0-19.281-8.651-19.281-19.281V116.287c0-10.63,8.651-19.281,19.281-19.281h269.22c10.63,0,19.281,8.651,19.281,19.281
		V293.79z M32.77,123.479h263.5v63.465H99.301v-38.355c0-2.995-2.429-5.424-5.424-5.424c-2.995,0-5.424,2.429-5.424,5.424v38.362
		H32.77V123.479z M55.264,217.876v69.088c0,5.321-4.319,9.64-9.64,9.64s-9.64-4.319-9.64-9.64v-69.088c0-5.321,4.319-9.64,9.64-9.64
		S55.264,212.555,55.264,217.876z M90.13,217.876v69.088c0,5.321-4.319,9.64-9.64,9.64s-9.64-4.319-9.64-9.64v-69.088
		c0-5.321,4.319-9.64,9.64-9.64S90.13,212.555,90.13,217.876z M124.996,217.876v69.088c0,5.321-4.319,9.64-9.64,9.64
		c-5.321,0-9.64-4.319-9.64-9.64v-69.088c0-5.321,4.319-9.64,9.64-9.64C120.677,208.236,124.996,212.555,124.996,217.876z
		 M159.861,217.876v69.088c0,5.321-4.319,9.64-9.64,9.64s-9.64-4.319-9.64-9.64v-69.088c0-5.321,4.319-9.64,9.64-9.64
		S159.861,212.555,159.861,217.876z M194.727,217.876v69.088c0,5.321-4.319,9.64-9.64,9.64s-9.64-4.319-9.64-9.64v-69.088
		c0-5.321,4.319-9.64,9.64-9.64S194.727,212.555,194.727,217.876z M229.592,217.876v69.088c0,5.321-4.319,9.64-9.64,9.64
		s-9.64-4.319-9.64-9.64v-69.088c0-5.321,4.319-9.64,9.64-9.64S229.592,212.555,229.592,217.876z M296.271,228.718
		c0,11.318-9.171,20.489-20.489,20.489c-11.318,0-20.489-9.171-20.489-20.489c0-11.318,9.171-20.489,20.489-20.489
		C287.1,208.229,296.271,217.407,296.271,228.718z M293.057,279.329c0,9.537-7.731,17.275-17.275,17.275
		s-17.275-7.731-17.275-17.275s7.731-17.275,17.275-17.275S293.057,269.792,293.057,279.329z"/>
</g>
<g>
</g>
<g>
</g>
<g>
</g>
<g>
</g>
<g>
</g>
<g>
</g>
<g>
</g>
<g>
</g>
<g>
</g>
<g>
</g>
<g>
</g>
<g>
</g>
<g>
</g>
<g>
</g>
<g>
</g>
</svg>
