<?xml version="1.0" encoding="iso-8859-1"?>
<!-- Generator: Adobe Illustrator 19.0.0, SVG Export Plug-In . SVG Version: 6.00 Build 0)  -->
<svg version="1.1" id="Capa_1" xmlns="http://www.w3.org/2000/svg" xmlns:xlink="http://www.w3.org/1999/xlink" x="0px" y="0px"
	 viewBox="0 0 480 480" style="enable-background:new 0 0 480 480;" xml:space="preserve">
<g>
	<g>
		<path d="M472,179.38h-8v-24c0-4.418-3.582-8-8-8H256c-4.418,0-8,3.582-8,8v24H59.584L276.28,42.14l-8.56-13.52L29.68,179.38H8
			c-4.418,0-8,3.582-8,8v256c0,4.418,3.582,8,8,8h464c4.418,0,8-3.582,8-8v-256C480,182.962,476.418,179.38,472,179.38z M424,163.38
			h24v16h-24V163.38z M384,163.38h24v16h-24V163.38z M344,163.38h24v16h-24V163.38z M304,163.38h24v16h-24V163.38z M264,163.38h24
			v16h-24V163.38z M464,435.38H16v-240h448V435.38z"/>
	</g>
</g>
<g>
	<g>
		<path d="M136,211.38c-57.438,0-104,46.562-104,104s46.562,104,104,104s104-46.562,104-104
			C239.934,257.97,193.41,211.446,136,211.38z M64,365.86c-10.423-14.768-16.013-32.404-16-50.48c0.004-18.049,5.593-35.654,16-50.4
			V365.86z M96,393.668c-5.697-2.895-11.062-6.401-16-10.456V247.548c4.938-4.055,10.303-7.561,16-10.456V393.668z M128,402.948
			c-5.415-0.5-10.772-1.504-16-3v-169.2c5.228-1.496,10.585-2.5,16-3V402.948z M160,399.972c-5.228,1.497-10.585,2.501-16,3V227.748
			c5.415,0.499,10.772,1.503,16,3V399.972z M192,383.212c-4.938,4.055-10.303,7.561-16,10.456V237.052
			c5.697,2.895,11.062,6.401,16,10.456V383.212z M208,365.86v-0.04V264.98C229.334,295.223,229.334,335.617,208,365.86z"/>
	</g>
</g>
<g>
	<g>
		<path d="M440,227.38H264c-4.418,0-8,3.582-8,8v152c0,4.418,3.582,8,8,8h176c4.418,0,8-3.582,8-8v-152
			C448,230.962,444.418,227.38,440,227.38z M432,379.38H272v-16h160V379.38z M432,347.38H272v-104h160V347.38z"/>
	</g>
</g>
<g>
	<g>
		<path d="M408,259.38H296c-4.418,0-8,3.582-8,8v56c0,4.418,3.582,8,8,8h112c4.418,0,8-3.582,8-8v-56
			C416,262.962,412.418,259.38,408,259.38z M400,315.38h-96v-40h96V315.38z"/>
	</g>
</g>
<g>
</g>
<g>
</g>
<g>
</g>
<g>
</g>
<g>
</g>
<g>
</g>
<g>
</g>
<g>
</g>
<g>
</g>
<g>
</g>
<g>
</g>
<g>
</g>
<g>
</g>
<g>
</g>
<g>
</g>
</svg>
