<?xml version="1.0" encoding="iso-8859-1"?>
<!-- Generator: Adobe Illustrator 19.0.0, SVG Export Plug-In . SVG Version: 6.00 Build 0)  -->
<svg version="1.1" id="Capa_1" xmlns="http://www.w3.org/2000/svg" xmlns:xlink="http://www.w3.org/1999/xlink" x="0px" y="0px"
	 viewBox="0 0 512 512" style="enable-background:new 0 0 512 512;" xml:space="preserve">
<g>
	<g>
		<g>
			<path d="M469.333,179.159v-42.583c-0.02-14.037-11.333-25.443-25.37-25.577L33.292,0.984c-2.223-0.638-4.525-0.955-6.838-0.942
				C17.299,0.056,8.845,4.951,4.275,12.884c-4.57,7.933-4.564,17.702,0.017,25.629c3.373,5.87,8.965,10.137,15.517,11.842
				l398.325,106.763v22.041H42.667C19.114,179.186,0.028,198.273,0,221.825v247.467c0.028,23.553,19.114,42.639,42.667,42.667
				h426.667c23.553-0.028,42.639-19.114,42.667-42.667V221.825C511.972,198.273,492.886,179.186,469.333,179.159z M435.2,136.575
				c0.038-4.225,3.193-7.771,7.384-8.301l3.362,0.922c3.722,1.006,6.31,4.378,6.321,8.233v41.729H435.2V136.575z M24.179,33.859
				c-2.161-0.56-4.006-1.965-5.121-3.9c-1.725-2.998-1.478-6.739,0.628-9.484s5.655-3.953,8.997-3.063l393.536,105.396
				c-2.658,4.1-4.077,8.88-4.086,13.767v2.875L24.179,33.859z M494.933,469.292c-0.033,10.813-6.868,20.435-17.067,24.028v-24.028
				c0-4.713-3.82-8.533-8.533-8.533s-8.533,3.82-8.533,8.533v25.6h-17.067v-25.6c0-4.713-3.82-8.533-8.533-8.533
				s-8.533,3.82-8.533,8.533v25.6H409.6v-25.6c0-4.713-3.82-8.533-8.533-8.533s-8.533,3.82-8.533,8.533v25.6h-17.067v-25.6
				c0-4.713-3.82-8.533-8.533-8.533s-8.533,3.82-8.533,8.533v25.6h-17.067v-25.6c0-4.713-3.821-8.533-8.533-8.533
				c-4.713,0-8.533,3.82-8.533,8.533v25.6H307.2v-25.6c0-4.713-3.82-8.533-8.533-8.533s-8.533,3.82-8.533,8.533v25.6h-17.067v-25.6
				c0-4.713-3.821-8.533-8.533-8.533s-8.533,3.82-8.533,8.533v25.6H42.667c-14.132-0.015-25.585-11.468-25.6-25.6V221.825
				c0.015-14.132,11.468-25.585,25.6-25.6h426.667c14.132,0.015,25.585,11.468,25.6,25.6V469.292z"/>
			<path d="M68.267,409.559c-18.851,0-34.133,15.282-34.133,34.133s15.282,34.133,34.133,34.133s34.133-15.282,34.133-34.133
				C102.378,424.85,87.109,409.58,68.267,409.559z M68.267,460.759c-9.426,0-17.067-7.641-17.067-17.067
				c0-9.426,7.641-17.067,17.067-17.067s17.067,7.641,17.067,17.067C85.324,453.114,77.688,460.749,68.267,460.759z"/>
			<path d="M196.267,409.559c-18.851,0-34.133,15.282-34.133,34.133s15.282,34.133,34.133,34.133s34.133-15.282,34.133-34.133
				C230.378,424.85,215.109,409.58,196.267,409.559z M196.267,460.759c-9.426,0-17.067-7.641-17.067-17.067
				c0-9.426,7.641-17.067,17.067-17.067s17.067,7.641,17.067,17.067C213.324,453.114,205.688,460.749,196.267,460.759z"/>
			<path d="M452.267,213.292h-179.2c-14.132,0.015-25.585,11.468-25.6,25.6v93.867c0.015,14.132,11.468,25.585,25.6,25.6h179.2
				c14.132-0.015,25.585-11.468,25.6-25.6v-93.867C477.851,224.76,466.399,213.307,452.267,213.292z M460.8,332.759
				c-0.006,4.71-3.823,8.527-8.533,8.533h-179.2c-4.71-0.006-8.527-3.823-8.533-8.533v-93.867c0.006-4.71,3.823-8.527,8.533-8.533
				h179.2c4.71,0.006,8.527,3.823,8.533,8.533V332.759z"/>
			<path d="M132.267,213.292c-54.198,0-98.133,43.936-98.133,98.133c0,54.198,43.936,98.133,98.133,98.133
				c54.198,0,98.133-43.936,98.133-98.133C230.34,257.253,186.439,213.352,132.267,213.292z M132.267,392.492
				c-32.788,0-62.348-19.751-74.896-50.044c-12.548-30.293-5.612-65.161,17.573-88.346c23.185-23.185,58.053-30.121,88.346-17.573
				c30.293,12.548,50.044,42.107,50.044,74.896C213.283,356.176,177.018,392.441,132.267,392.492z"/>
			<path d="M132.267,247.425c-35.346,0-64,28.654-64,64c0,35.346,28.654,64,64,64c35.346,0,64-28.654,64-64
				C196.228,276.095,167.597,247.464,132.267,247.425z M132.267,358.359c-25.921,0-46.933-21.013-46.933-46.933
				c0-25.921,21.013-46.933,46.933-46.933c25.921,0,46.933,21.013,46.933,46.933C179.171,337.334,158.175,358.329,132.267,358.359z"
				/>
			<path d="M273.067,366.892c-14.139,0-25.6,11.461-25.6,25.6c0,14.138,11.461,25.6,25.6,25.6c14.138,0,25.6-11.462,25.6-25.6
				C298.651,378.36,287.199,366.907,273.067,366.892z M273.067,401.025c-4.713,0-8.533-3.82-8.533-8.533s3.821-8.533,8.533-8.533
				c4.713,0,8.533,3.821,8.533,8.533C281.594,397.202,277.777,401.019,273.067,401.025z"/>
			<path d="M332.8,366.892c-14.138,0-25.6,11.461-25.6,25.6c0,14.138,11.462,25.6,25.6,25.6c14.138,0,25.6-11.462,25.6-25.6
				C358.385,378.36,346.932,366.907,332.8,366.892z M332.8,401.025c-4.713,0-8.533-3.82-8.533-8.533s3.821-8.533,8.533-8.533
				c4.713,0,8.533,3.821,8.533,8.533C341.327,397.202,337.51,401.019,332.8,401.025z"/>
			<path d="M392.533,366.892c-14.138,0-25.6,11.461-25.6,25.6c0,14.138,11.462,25.6,25.6,25.6c14.138,0,25.6-11.462,25.6-25.6
				C418.118,378.36,406.665,366.907,392.533,366.892z M392.533,401.025c-4.713,0-8.533-3.82-8.533-8.533s3.821-8.533,8.533-8.533
				c4.713,0,8.533,3.821,8.533,8.533C401.061,397.202,397.244,401.019,392.533,401.025z"/>
			<path d="M452.267,366.892c-14.138,0-25.6,11.461-25.6,25.6c0,14.138,11.462,25.6,25.6,25.6c14.138,0,25.6-11.462,25.6-25.6
				C477.851,378.36,466.399,366.907,452.267,366.892z M452.267,401.025c-4.713,0-8.533-3.82-8.533-8.533s3.821-8.533,8.533-8.533
				c4.713,0,8.533,3.821,8.533,8.533C460.794,397.202,456.977,401.019,452.267,401.025z"/>
			<path d="M290.133,247.425c-4.713,0-8.533,3.821-8.533,8.533v17.067c0,4.713,3.82,8.533,8.533,8.533s8.533-3.82,8.533-8.533
				v-17.067C298.666,251.246,294.846,247.425,290.133,247.425z"/>
			<path d="M290.133,290.092c-4.713,0-8.533,3.821-8.533,8.533v17.067c0,4.713,3.82,8.533,8.533,8.533s8.533-3.82,8.533-8.533
				v-17.067C298.666,293.913,294.846,290.092,290.133,290.092z"/>
			<path d="M324.267,247.425c-4.713,0-8.533,3.821-8.533,8.533v17.067c0,4.713,3.82,8.533,8.533,8.533s8.533-3.82,8.533-8.533
				v-17.067C332.8,251.246,328.979,247.425,324.267,247.425z"/>
			<path d="M324.267,290.092c-4.713,0-8.533,3.821-8.533,8.533v17.067c0,4.713,3.82,8.533,8.533,8.533s8.533-3.82,8.533-8.533
				v-17.067C332.8,293.913,328.979,290.092,324.267,290.092z"/>
			<path d="M401.067,247.425c-4.713,0-8.533,3.821-8.533,8.533v17.067c0,4.713,3.821,8.533,8.533,8.533s8.533-3.82,8.533-8.533
				v-17.067C409.6,251.246,405.779,247.425,401.067,247.425z"/>
			<path d="M401.067,290.092c-4.713,0-8.533,3.821-8.533,8.533v17.067c0,4.713,3.821,8.533,8.533,8.533s8.533-3.82,8.533-8.533
				v-17.067C409.6,293.913,405.779,290.092,401.067,290.092z"/>
			<path d="M435.2,247.425c-4.713,0-8.533,3.821-8.533,8.533v17.067c0,4.713,3.82,8.533,8.533,8.533s8.533-3.82,8.533-8.533v-17.067
				C443.733,251.246,439.913,247.425,435.2,247.425z"/>
			<path d="M435.2,290.092c-4.713,0-8.533,3.821-8.533,8.533v17.067c0,4.713,3.82,8.533,8.533,8.533s8.533-3.82,8.533-8.533v-17.067
				C443.733,293.913,439.913,290.092,435.2,290.092z"/>
			<path d="M356.692,264.659c-0.535,0.095-1.053,0.268-1.537,0.512c-0.543,0.187-1.058,0.445-1.533,0.767
				c-0.447,0.315-0.874,0.657-1.279,1.025c-2.461,2.441-3.201,6.129-1.872,9.331c1.329,3.202,4.464,5.281,7.931,5.261
				c1.119,0.029,2.229-0.205,3.242-0.683c1.035-0.431,1.988-1.037,2.817-1.792c0.771-0.817,1.379-1.773,1.792-2.817
				c0.438-1.025,0.67-2.127,0.683-3.242c-0.034-2.259-0.918-4.422-2.475-6.059C362.394,264.985,359.501,264.127,356.692,264.659z"/>
			<path d="M364.459,301.096c-0.816-0.771-1.772-1.379-2.817-1.792c-1.556-0.682-3.287-0.861-4.95-0.512
				c-0.535,0.095-1.053,0.267-1.537,0.512c-0.543,0.187-1.058,0.445-1.533,0.767c-0.429,0.341-0.854,0.683-1.279,1.025
				c-0.754,0.83-1.362,1.782-1.796,2.817c-0.436,1.026-0.667,2.127-0.68,3.242c0.031,2.259,0.915,4.423,2.475,6.059
				c0.425,0.341,0.85,0.683,1.279,1.025c0.475,0.322,0.991,0.58,1.533,0.767c0.483,0.249,1.002,0.421,1.537,0.513
				c0.565,0.096,1.136,0.153,1.708,0.171c1.115-0.012,2.217-0.244,3.242-0.683c1.045-0.411,2.001-1.02,2.817-1.792
				c1.558-1.636,2.441-3.8,2.475-6.059c-0.014-1.115-0.246-2.216-0.683-3.242C365.815,302.879,365.21,301.927,364.459,301.096z"/>
		</g>
	</g>
</g>
<g>
</g>
<g>
</g>
<g>
</g>
<g>
</g>
<g>
</g>
<g>
</g>
<g>
</g>
<g>
</g>
<g>
</g>
<g>
</g>
<g>
</g>
<g>
</g>
<g>
</g>
<g>
</g>
<g>
</g>
</svg>
