<?xml version="1.0" encoding="iso-8859-1"?>
<!-- Generator: Adobe Illustrator 19.0.0, SVG Export Plug-In . SVG Version: 6.00 Build 0)  -->
<svg version="1.1" id="Capa_1" xmlns="http://www.w3.org/2000/svg" xmlns:xlink="http://www.w3.org/1999/xlink" x="0px" y="0px"
	 viewBox="0 0 512 512" style="enable-background:new 0 0 512 512;" xml:space="preserve">
<g>
	<g>
		<path d="M167.447,156.894L443.033,53.183l-10.566-28.078L82.271,156.894H0v330h512v-330H167.447z M482,456.894H30v-270h452
			V456.894z"/>
	</g>
</g>
<g>
	<g>
		<path d="M165,226.894c-52.383,0-95,42.617-95,95s42.617,95,95,95s95-42.617,95-95S217.383,226.894,165,226.894z M165,386.894
			c-35.841,0-65-29.159-65-65s29.159-65,65-65s65,29.159,65,65S200.841,386.894,165,386.894z"/>
	</g>
</g>
<g>
	<g>
		<rect x="300" y="306.891" width="142" height="30"/>
	</g>
</g>
<g>
	<g>
		<rect x="300" y="366.891" width="142" height="30"/>
	</g>
</g>
<g>
	<g>
		<rect x="300" y="246.891" width="142" height="30"/>
	</g>
</g>
<g>
</g>
<g>
</g>
<g>
</g>
<g>
</g>
<g>
</g>
<g>
</g>
<g>
</g>
<g>
</g>
<g>
</g>
<g>
</g>
<g>
</g>
<g>
</g>
<g>
</g>
<g>
</g>
<g>
</g>
</svg>
