<?xml version="1.0" encoding="iso-8859-1"?>
<!-- Generator: Adobe Illustrator 19.0.0, SVG Export Plug-In . SVG Version: 6.00 Build 0)  -->
<svg version="1.1" id="Capa_1" xmlns="http://www.w3.org/2000/svg" xmlns:xlink="http://www.w3.org/1999/xlink" x="0px" y="0px"
	 viewBox="0 0 512 512" style="enable-background:new 0 0 512 512;" xml:space="preserve">
<g>
	<g>
		<g>
			<path d="M469.333,119.428v-25.6c0.016-1.247-0.091-2.492-0.321-3.717c-0.017-0.135-0.076-0.272-0.096-0.408
				c-0.169-0.965-0.393-1.918-0.673-2.857c-0.191-0.68-0.373-1.346-0.628-2.02c-0.331-0.847-0.707-1.676-1.128-2.483
				c-0.215-0.427-0.349-0.877-0.588-1.295c-0.147-0.255-0.37-0.513-0.533-0.768c-0.353-0.562-0.733-1.093-1.128-1.624
				c-0.088-0.111-0.14-0.221-0.23-0.332c-0.096-0.135-0.256-0.245-0.356-0.379c-0.898-1.132-1.889-2.186-2.964-3.151
				c-0.192-0.171-0.309-0.374-0.509-0.541c-0.313-0.273-0.717-0.491-1.055-0.75c-0.598-0.455-1.193-0.901-1.831-1.302
				c-0.148-0.091-0.261-0.206-0.414-0.294c-0.748-0.459-1.53-0.861-2.338-1.202c-0.351-0.165-0.673-0.37-1.031-0.519
				c-0.738-0.348-1.509-0.621-2.302-0.813c-0.486-0.154-1.126-0.291-1.698-0.431c-0.289-0.067-0.565-0.16-0.857-0.217
				c-0.168-0.038-0.271-0.076-0.449-0.114L61.567,0.419C51.377-1.354,41.121,3.175,35.568,11.901
				c-5.553,8.725-5.314,19.934,0.607,28.414c3.87,5.593,9.827,9.393,16.529,10.546l365.429,64.465v4.102H42.667
				C19.114,119.455,0.028,138.542,0,162.094v307.2c0.028,23.553,19.114,42.639,42.667,42.667h426.667
				c23.553-0.028,42.639-19.114,42.667-42.667v-307.2C511.972,138.542,492.886,119.455,469.333,119.428z M435.2,93.828
				c0.006-4.71,3.823-8.527,8.533-8.533c1.088,0.008,2.165,0.226,3.171,0.642l0.254,0.102c0.887,0.399,1.7,0.948,2.402,1.621
				c0.091,0.087,0.235,0.21,0.296,0.275c0.634,0.673,1.155,1.445,1.542,2.285c0.084,0.18,0.175,0.355,0.248,0.547
				c0.395,0.972,0.606,2.01,0.62,3.06v25.6H435.2V93.828z M55.65,34.048c-2.219-0.379-4.191-1.636-5.471-3.487
				c-1.828-2.61-2.053-6.02-0.582-8.847c1.471-2.827,4.392-4.601,7.578-4.603c0.503,0,1.005,0.044,1.5,0.129L421.58,81.238
				c-2.231,3.823-3.419,8.164-3.446,12.59v4.166L55.65,34.048z M494.933,469.294c-0.015,14.132-11.468,25.585-25.6,25.6H42.667
				c-14.132-0.015-25.585-11.468-25.6-25.6v-307.2c0.015-14.132,11.468-25.585,25.6-25.6h426.667
				c14.132,0.015,25.585,11.468,25.6,25.6V469.294z"/>
			<path d="M452.267,153.561H59.733c-14.132,0.015-25.585,11.468-25.6,25.6v68.267c0.015,14.132,11.468,25.585,25.6,25.6h392.533
				c14.132-0.015,25.585-11.468,25.6-25.6v-68.267C477.851,165.029,466.399,153.576,452.267,153.561z M119.467,255.961H59.733
				c-4.71-0.006-8.527-3.823-8.533-8.533v-8.533h68.267V255.961z M460.8,247.428c-0.006,4.71-3.823,8.527-8.533,8.533H136.533
				v-17.067H460.8V247.428z M460.8,221.828H136.533v-8.533c0-4.713-3.82-8.533-8.533-8.533s-8.533,3.821-8.533,8.533v8.533H51.2
				v-42.667c0.006-4.71,3.823-8.527,8.533-8.533H76.8v8.533c0,4.713,3.82,8.533,8.533,8.533s8.533-3.82,8.533-8.533v-8.533h17.067
				v8.533c0,4.713,3.82,8.533,8.533,8.533s8.533-3.82,8.533-8.533v-8.533h17.067v8.533c0,4.713,3.821,8.533,8.533,8.533
				c4.713,0,8.533-3.82,8.533-8.533v-8.533H179.2v8.533c0,4.713,3.82,8.533,8.533,8.533s8.533-3.82,8.533-8.533v-8.533h17.067v8.533
				c0,4.713,3.82,8.533,8.533,8.533s8.533-3.82,8.533-8.533v-8.533h17.067v8.533c0,4.713,3.82,8.533,8.533,8.533
				s8.533-3.82,8.533-8.533v-8.533H281.6v8.533c0,4.713,3.82,8.533,8.533,8.533s8.533-3.82,8.533-8.533v-8.533h17.067v8.533
				c0,4.713,3.82,8.533,8.533,8.533s8.533-3.82,8.533-8.533v-8.533h17.067v8.533c0,4.713,3.82,8.533,8.533,8.533
				s8.533-3.82,8.533-8.533v-8.533H384v8.533c0,4.713,3.821,8.533,8.533,8.533c4.713,0,8.533-3.82,8.533-8.533v-8.533h17.067v8.533
				c0,4.713,3.82,8.533,8.533,8.533s8.533-3.82,8.533-8.533v-8.533h17.067c4.71,0.006,8.527,3.823,8.533,8.533V221.828z"/>
			<path d="M128,290.094c-51.841,0-93.867,42.026-93.867,93.867S76.159,477.828,128,477.828s93.867-42.026,93.867-93.867
				C221.808,332.144,179.817,290.153,128,290.094z M68.267,426.628h-4.08c-3.535-5.312-6.392-11.046-8.506-17.067h12.585V426.628z
				 M68.267,392.494H51.703c-0.672-5.669-0.672-11.398,0-17.067h16.563V392.494z M68.267,358.361H55.681
				c2.113-6.021,4.971-11.754,8.506-17.067h4.08V358.361z M102.4,456.28c-6.021-2.113-11.754-4.971-17.067-8.506v-4.08H102.4V456.28
				z M102.4,426.628H85.333v-17.067H102.4V426.628z M102.4,392.494H85.333v-17.067H102.4V392.494z M102.4,358.361H85.333v-17.067
				H102.4V358.361z M102.4,324.228H85.333v-4.08c5.313-3.535,11.046-6.392,17.067-8.506V324.228z M136.533,460.258
				c-5.669,0.672-11.398,0.672-17.067,0v-16.563h17.067V460.258z M136.533,426.628h-17.067v-17.067h17.067V426.628z
				 M136.533,392.494h-17.067v-17.067h17.067V392.494z M136.533,358.361h-17.067v-17.067h17.067V358.361z M136.533,324.228h-17.067
				v-16.563c5.669-0.672,11.398-0.672,17.067,0V324.228z M170.667,447.774c-5.313,3.535-11.046,6.392-17.067,8.506v-12.585h17.067
				V447.774z M170.667,426.628H153.6v-17.067h17.067V426.628z M170.667,392.494H153.6v-17.067h17.067V392.494z M170.667,358.361
				H153.6v-17.067h17.067V358.361z M170.667,324.228H153.6v-12.585c6.021,2.113,11.754,4.971,17.067,8.506V324.228z
				 M191.813,426.628h-4.08v-17.067h12.585C198.205,415.582,195.348,421.315,191.813,426.628z M204.297,392.494h-16.563v-17.067
				h16.563C204.968,381.097,204.968,386.825,204.297,392.494z M187.733,358.361v-17.067h4.08c3.535,5.312,6.392,11.046,8.506,17.067
				H187.733z"/>
			<path d="M332.8,307.161c-32.57-0.002-60.606,23.005-66.961,54.949c-6.355,31.944,10.74,63.929,40.83,76.394
				c30.091,12.465,64.796,1.938,82.891-25.143s14.541-63.173-8.49-86.204C368.298,314.311,350.915,307.11,332.8,307.161z
				 M369.004,411.632L369.004,411.632c-18.806,18.85-48.924,20.13-69.261,2.943c-20.337-17.187-24.096-47.098-8.645-68.783
				l17.569,17.569c2.155,2.155,5.297,2.997,8.242,2.208c2.944-0.789,5.244-3.089,6.033-6.033c0.789-2.944-0.053-6.086-2.208-8.242
				l-17.57-17.569c21.687-15.419,51.57-11.647,68.746,8.677C389.085,362.725,387.822,392.819,369.004,411.632z"/>
			<path d="M443.733,307.161c-18.851,0-34.133,15.282-34.133,34.133c0,18.851,15.282,34.133,34.133,34.133
				c18.851,0,34.133-15.282,34.133-34.133C477.845,322.452,462.576,307.182,443.733,307.161z M443.733,358.361
				c-9.426,0-17.067-7.641-17.067-17.067c0-9.426,7.641-17.067,17.067-17.067s17.067,7.641,17.067,17.067
				C460.791,350.716,453.155,358.352,443.733,358.361z"/>
			<path d="M443.733,392.494c-18.851,0-34.133,15.282-34.133,34.133s15.282,34.133,34.133,34.133
				c18.851,0,34.133-15.282,34.133-34.133C477.845,407.785,462.576,392.516,443.733,392.494z M443.733,443.694
				c-9.426,0-17.067-7.641-17.067-17.067s7.641-17.067,17.067-17.067s17.067,7.641,17.067,17.067
				C460.791,436.049,453.155,443.685,443.733,443.694z"/>
		</g>
	</g>
</g>
<g>
</g>
<g>
</g>
<g>
</g>
<g>
</g>
<g>
</g>
<g>
</g>
<g>
</g>
<g>
</g>
<g>
</g>
<g>
</g>
<g>
</g>
<g>
</g>
<g>
</g>
<g>
</g>
<g>
</g>
</svg>
